<svg width="0" height="0" class="hidden">
  <symbol version="1.1" id="logo" xmlns="http://www.w3.org/2000/svg" xmlns:xlink="http://www.w3.org/1999/xlink" x="0px" y="0px" xml:space="preserve" viewBox="0 0 504.123 504.123">
    <linearGradient id="SVGID_1_" gradientUnits="userSpaceOnUse" x1="-23.3212" y1="623.5853" x2="-8.5992" y2="621.6543" gradientTransform="matrix(7.8769 0 0 -7.8769 364.0649 4969.6768)">
      <stop offset="0.012"></stop>
      <stop offset="0.519"></stop>
      <stop offset="1"></stop>
    </linearGradient>
    <path d="M246.767,70.436c0-31.831,21.205-58.691,50.278-67.261
	c-6.294-1.859-12.965-2.867-19.858-2.867c-38.731,0-70.128,31.397-70.128,70.128c0,38.739,31.397,70.136,70.128,70.136
	c6.9,0,13.572-1.016,19.858-2.867C267.971,129.143,246.767,102.275,246.767,70.436z"></path>
    <linearGradient id="SVGID_2_" gradientUnits="userSpaceOnUse" x1="-5.122" y1="574.2509" x2="-19.847" y2="576.1808" gradientTransform="matrix(7.8769 0 0 -7.8769 364.0649 4969.6768)">
      <stop offset="0.012"></stop>
      <stop offset="0.519"></stop>
      <stop offset="1"></stop>
    </linearGradient>
    <path d="M257.322,433.665c0,31.831-21.205,58.699-50.278,67.261
	c6.302,1.859,12.965,2.867,19.866,2.867c38.723,0,70.12-31.397,70.12-70.128c0-38.739-31.397-70.136-70.12-70.136
	c-6.9,0-13.572,1.016-19.866,2.867C236.117,374.966,257.322,401.826,257.322,433.665z"></path>
    <linearGradient id="SVGID_3_" gradientUnits="userSpaceOnUse" x1="-3.2121" y1="622.7939" x2="5.8319" y2="611.0179" gradientTransform="matrix(7.8769 0 0 -7.8769 364.0649 4969.6768)">
      <stop offset="0.012"></stop>
      <stop offset="0.519"></stop>
      <stop offset="1"></stop>
    </linearGradient>
    <path d="M376.736,119.903c22.496-22.496,56.501-26.506,83.102-12.012
	c-3.127-5.766-7.129-11.193-11.997-16.061c-27.404-27.404-71.798-27.404-99.194,0c-27.388,27.388-27.388,71.79,0,99.178
	c4.876,4.884,10.319,8.885,16.069,12.012C350.222,176.412,354.216,142.408,376.736,119.903z"></path>
    <linearGradient id="SVGID_4_" gradientUnits="userSpaceOnUse" x1="-25.2291" y1="575.0446" x2="-34.2741" y2="586.8156" gradientTransform="matrix(7.8769 0 0 -7.8769 364.0649 4969.6768)">
      <stop offset="0.012"></stop>
      <stop offset="0.519"></stop>
      <stop offset="1"></stop>
    </linearGradient>
    <path d="M127.352,384.198c-22.496,22.512-56.501,26.514-83.109,12.02
	c3.135,5.758,7.144,11.193,12.012,16.061c27.388,27.388,71.79,27.388,99.186,0c27.388-27.396,27.388-71.782,0.016-99.178
	c-4.892-4.876-10.327-8.885-16.085-12.012C153.866,327.704,149.88,361.686,127.352,384.198z"></path>
    <linearGradient id="SVGID_5_" gradientUnits="userSpaceOnUse" x1="10.4449" y1="608.0173" x2="8.5149" y2="593.2953" gradientTransform="matrix(7.8769 0 0 -7.8769 364.0649 4969.6768)">
      <stop offset="0.012"></stop>
      <stop offset="0.519"></stop>
      <stop offset="1"></stop>
    </linearGradient>
    <path d="M433.647,246.777c31.831,0,58.699,21.205,67.269,50.271
	c1.859-6.294,2.859-12.965,2.867-19.858c-0.008-38.747-31.397-70.136-70.136-70.128c-38.739-0.016-70.128,31.397-70.128,70.128
	c-0.008,6.892,1.008,13.564,2.859,19.858C374.956,267.982,401.816,246.761,433.647,246.777z"></path>
    <linearGradient id="SVGID_6_" gradientUnits="userSpaceOnUse" x1="-38.8884" y1="589.8199" x2="-36.9574" y2="604.5419" gradientTransform="matrix(7.8769 0 0 -7.8769 364.0649 4969.6768)">
      <stop offset="0.012"></stop>
      <stop offset="0.519"></stop>
      <stop offset="1"></stop>
    </linearGradient>
    <path d="M70.434,257.332c-31.831,0-58.691-21.205-67.261-50.271
	c-1.859,6.294-2.867,12.965-2.867,19.858c0,38.723,31.397,70.12,70.128,70.12c38.739,0,70.128-31.397,70.136-70.12
	c0-6.9-1.016-13.572-2.867-19.858C129.133,236.127,102.272,257.332,70.434,257.332z"></path>
    <linearGradient id="SVGID_7_" gradientUnits="userSpaceOnUse" x1="9.6517" y1="587.9084" x2="-2.1203" y2="578.8644" gradientTransform="matrix(7.8769 0 0 -7.8769 364.0649 4969.6768)">
      <stop offset="0.012"></stop>
      <stop offset="0.519"></stop>
      <stop offset="1"></stop>
    </linearGradient>
    <path d="M384.187,376.738c22.496,22.504,26.514,56.501,12.012,83.117
	c5.766-3.143,11.185-7.144,16.077-12.012c27.396-27.404,27.396-71.79-0.008-99.186c-27.38-27.404-71.79-27.388-99.178-0.008
	c-4.876,4.876-8.893,10.303-12.02,16.069C327.678,350.225,361.683,354.226,384.187,376.738z"></path>
    <linearGradient id="SVGID_8_" gradientUnits="userSpaceOnUse" x1="-38.0985" y1="609.925" x2="-26.3225" y2="618.97" gradientTransform="matrix(7.8769 0 0 -7.8769 364.0649 4969.6768)">
      <stop offset="0.012"></stop>
      <stop offset="0.519"></stop>
      <stop offset="1"></stop>
    </linearGradient>
    <path d="M119.893,127.371c-22.504-22.504-26.522-56.501-12.012-83.102
	c-5.766,3.127-11.201,7.129-16.077,11.997c-27.388,27.388-27.388,71.79,0.008,99.194c27.396,27.38,71.79,27.38,99.178,0
	c4.876-4.868,8.877-10.319,12.012-16.077C176.402,153.884,142.413,149.883,119.893,127.371z"></path>
    <linearGradient id="SVGID_9_" gradientUnits="userSpaceOnUse" x1="-34.4361" y1="615.7292" x2="-20.7191" y2="621.4193" gradientTransform="matrix(7.8769 0 0 -7.8769 364.0649 4969.6768)">
      <stop offset="0.012"></stop>
      <stop offset="0.519"></stop>
      <stop offset="1"></stop>
    </linearGradient>
    <path d="M156.67,97.415c-15.919-27.561-10.98-61.44,9.917-83.385
	c-6.388,1.528-12.674,3.994-18.637,7.436c-33.548,19.369-45.04,62.259-25.679,95.799c19.377,33.564,62.275,45.04,95.807,25.679
	c5.971-3.45,11.248-7.664,15.777-12.414C204.389,137.65,172.59,124.992,156.67,97.415z"></path>
    <linearGradient id="SVGID_10_" gradientUnits="userSpaceOnUse" x1="5.9952" y1="582.1044" x2="-7.7218" y2="576.4144" gradientTransform="matrix(7.8769 0 0 -7.8769 364.0649 4969.6768)">
      <stop offset="0.012"></stop>
      <stop offset="0.519"></stop>
      <stop offset="1"></stop>
    </linearGradient>
    <path d="M347.434,406.702c15.919,27.569,10.988,61.432-9.909,83.377
	c6.388-1.528,12.658-3.994,18.629-7.436c33.54-19.361,45.032-62.259,25.671-95.799c-19.361-33.556-62.251-45.04-95.799-25.679
	c-5.963,3.45-11.24,7.656-15.77,12.414C299.707,366.459,331.507,379.133,347.434,406.702z"></path>
    <linearGradient id="SVGID_11_" gradientUnits="userSpaceOnUse" x1="-16.6287" y1="625.0984" x2="-2.9048" y2="619.4234" gradientTransform="matrix(7.8769 0 0 -7.8769 364.0649 4969.6768)">
      <stop offset="0.012"></stop>
      <stop offset="0.519"></stop>
      <stop offset="1"></stop>
    </linearGradient>
    <path d="M293.957,75.273c8.239-30.744,35.682-51.208,65.977-51.956
	c-5.608-3.434-11.784-6.128-18.44-7.916C304.071,5.381,265.6,27.57,255.589,64.993c-10.012,37.408,12.186,75.871,49.593,85.89
	c6.672,1.796,13.367,2.536,19.913,2.371C299.258,137.461,285.71,106.016,293.957,75.273z"></path>
    <linearGradient id="SVGID_12_" gradientUnits="userSpaceOnUse" x1="-11.8187" y1="572.7328" x2="-25.5407" y2="578.4128" gradientTransform="matrix(7.8769 0 0 -7.8769 364.0649 4969.6768)">
      <stop offset="0.012"></stop>
      <stop offset="0.519"></stop>
      <stop offset="1"></stop>
    </linearGradient>
    <path d="M210.139,428.844c-8.239,30.736-35.667,51.216-65.953,51.964
	c5.6,3.419,11.768,6.12,18.432,7.908c37.408,10.012,75.878-12.186,85.89-49.585c10.012-37.423-12.17-75.878-49.577-85.898
	c-6.672-1.796-13.367-2.536-19.929-2.363C204.854,366.648,218.386,398.093,210.139,428.844z"></path>
    <linearGradient id="SVGID_13_" gradientUnits="userSpaceOnUse" x1="2.5901" y1="619.1297" x2="8.2801" y2="605.4157" gradientTransform="matrix(7.8769 0 0 -7.8769 364.0649 4969.6768)">
      <stop offset="0.012"></stop>
      <stop offset="0.519"></stop>
      <stop offset="1"></stop>
    </linearGradient>
    <path d="M406.684,156.689c27.569-15.919,61.456-10.988,83.393,9.901
	c-1.536-6.38-4.017-12.65-7.444-18.629c-19.377-33.548-62.259-45.04-95.799-25.663c-33.564,19.346-45.04,62.251-25.679,95.799
	c3.45,5.979,7.648,11.24,12.414,15.77C366.464,204.407,379.107,172.592,406.684,156.689z"></path>
    <linearGradient id="SVGID_14_" gradientUnits="userSpaceOnUse" x1="-31.0324" y1="578.7007" x2="-36.7214" y2="592.4167" gradientTransform="matrix(7.8769 0 0 -7.8769 364.0649 4969.6768)">
      <stop offset="0.012"></stop>
      <stop offset="0.519"></stop>
      <stop offset="1"></stop>
    </linearGradient>
    <path d="M97.404,347.436c-27.553,15.919-61.432,10.98-83.385-9.909
	c1.552,6.388,4.017,12.658,7.459,18.629c19.354,33.54,62.243,45.032,95.799,25.671c33.548-19.369,45.017-62.251,25.663-95.799
	c-3.45-5.971-7.648-11.24-12.406-15.77C137.632,299.718,124.989,331.517,97.404,347.436z"></path>
    <linearGradient id="SVGID_15_" gradientUnits="userSpaceOnUse" x1="11.9601" y1="601.3145" x2="6.2841" y2="587.5975" gradientTransform="matrix(7.8769 0 0 -7.8769 364.0649 4969.6768)">
      <stop offset="0.012"></stop>
      <stop offset="0.519"></stop>
      <stop offset="1"></stop>
    </linearGradient>
    <path d="M428.842,293.96c30.72,8.247,51.2,35.682,51.964,65.969
	c3.419-5.593,6.112-11.776,7.901-18.44c10.035-37.415-12.17-75.863-49.593-85.882c-37.408-10.043-75.871,12.178-85.89,49.577
	c-1.788,6.656-2.552,13.351-2.371,19.929C366.638,299.253,398.09,285.713,428.842,293.96z"></path>
    <linearGradient id="SVGID_16_" gradientUnits="userSpaceOnUse" x1="-40.401" y1="596.5148" x2="-34.726" y2="610.2358" gradientTransform="matrix(7.8769 0 0 -7.8769 364.0649 4969.6768)">
      <stop offset="0.012"></stop>
      <stop offset="0.519"></stop>
      <stop offset="1"></stop>
    </linearGradient>
    <path d="M75.27,210.149c-30.744-8.224-51.224-35.667-51.964-65.953
	c-3.434,5.593-6.128,11.776-7.924,18.44c-10.027,37.4,12.178,75.855,49.601,85.882c37.4,10.027,75.855-12.17,85.89-49.585
	c1.788-6.664,2.521-13.359,2.371-19.921C137.451,204.864,106.006,218.396,75.27,210.149z"></path>
    <linearGradient id="SVGID_17_" gradientUnits="userSpaceOnUse" x1="-40.1337" y1="603.3661" x2="-31.0987" y2="615.1542" gradientTransform="matrix(7.8769 0 0 -7.8769 364.0649 4969.6768)">
      <stop offset="0.012"></stop>
      <stop offset="0.519"></stop>
      <stop offset="1"></stop>
    </linearGradient>
    <path d="M92.135,165.826c-27.561-15.911-40.227-47.726-33.091-77.17
	c-4.766,4.513-8.995,9.791-12.438,15.77c-19.369,33.54-7.869,76.43,25.671,95.799c33.564,19.369,76.453,7.861,95.815-25.679
	c3.45-5.971,5.908-12.256,7.452-18.629C153.583,176.806,119.712,181.745,92.135,165.826z"></path>
    <linearGradient id="SVGID_18_" gradientUnits="userSpaceOnUse" x1="11.6982" y1="594.4638" x2="2.6582" y2="582.6788" gradientTransform="matrix(7.8769 0 0 -7.8769 364.0649 4969.6768)">
      <stop offset="0.012"></stop>
      <stop offset="0.519"></stop>
      <stop offset="1"></stop>
    </linearGradient>
    <path d="M411.977,338.291c27.561,15.919,40.227,47.711,33.107,77.162
	c4.773-4.521,8.964-9.791,12.414-15.754c19.361-33.548,7.877-76.438-25.663-95.799c-33.548-19.377-76.438-7.877-95.799,25.663
	c-3.45,5.971-5.923,12.249-7.467,18.629C350.529,327.311,384.4,322.38,411.977,338.291z"></path>
    <linearGradient id="SVGID_19_" gradientUnits="userSpaceOnUse" x1="-29.3952" y1="620.3845" x2="-14.6692" y2="622.3345" gradientTransform="matrix(7.8769 0 0 -7.8769 364.0649 4969.6768)">
      <stop offset="0.012"></stop>
      <stop offset="0.519"></stop>
      <stop offset="1"></stop>
    </linearGradient>
    <path d="M199.938,78.006c-8.231-30.752,5.317-62.196,31.169-77.982
	c-6.577-0.165-13.265,0.575-19.913,2.363c-37.423,10.027-59.636,48.482-49.609,85.906c10.035,37.4,48.49,59.605,85.906,49.585
	c6.672-1.788,12.832-4.482,18.432-7.901C235.652,129.206,208.193,108.758,199.938,78.006z"></path>
    <linearGradient id="SVGID_20_" gradientUnits="userSpaceOnUse" x1="0.9566" y1="577.4451" x2="-13.7624" y2="575.5001" gradientTransform="matrix(7.8769 0 0 -7.8769 364.0649 4969.6768)">
      <stop offset="0.012"></stop>
      <stop offset="0.519"></stop>
      <stop offset="1"></stop>
    </linearGradient>
    <path d="M304.166,426.127c8.224,30.736-5.293,62.18-31.145,77.974
	c6.561,0.158,13.265-0.591,19.913-2.379c37.408-10.019,59.605-48.482,49.593-85.882c-10.035-37.415-48.467-59.628-85.874-49.601
	c-6.664,1.788-12.847,4.482-18.448,7.924C268.468,374.903,295.942,395.359,304.166,426.127z"></path>
    <linearGradient id="SVGID_21_" gradientUnits="userSpaceOnUse" x1="-9.7663" y1="624.828" x2="2.0177" y2="615.795" gradientTransform="matrix(7.8769 0 0 -7.8769 364.0649 4969.6768)">
      <stop offset="0.012"></stop>
      <stop offset="0.519"></stop>
      <stop offset="1"></stop>
    </linearGradient>
    <path d="M338.289,92.145c15.919-27.561,47.742-40.235,77.17-33.122
	c-4.513-4.758-9.807-8.948-15.746-12.414c-33.579-19.361-76.438-7.869-95.807,25.679c-19.393,33.54-7.877,76.438,25.663,95.807
	c5.979,3.45,12.249,5.916,18.621,7.452C327.308,153.585,322.369,119.706,338.289,92.145z"></path>
    <linearGradient id="SVGID_22_" gradientUnits="userSpaceOnUse" x1="-18.6694" y1="573.0059" x2="-30.4564" y2="582.0359" gradientTransform="matrix(7.8769 0 0 -7.8769 364.0649 4969.6768)">
      <stop offset="0.012"></stop>
      <stop offset="0.519"></stop>
      <stop offset="1"></stop>
    </linearGradient>
    <path d="M165.815,411.98c-15.911,27.569-47.718,40.227-77.162,33.115
	c4.537,4.758,9.791,8.964,15.777,12.406c33.532,19.369,76.422,7.877,95.783-25.671c19.385-33.548,7.869-76.43-25.655-95.791
	c-5.979-3.45-12.272-5.916-18.645-7.444C176.796,350.54,181.758,384.41,165.815,411.98z"></path>
    <linearGradient id="SVGID_23_" gradientUnits="userSpaceOnUse" x1="7.2511" y1="614.0878" x2="9.1961" y2="599.3658" gradientTransform="matrix(7.8769 0 0 -7.8769 364.0649 4969.6768)">
      <stop offset="0.012"></stop>
      <stop offset="0.519"></stop>
      <stop offset="1"></stop>
    </linearGradient>
    <path d="M426.116,199.949c30.728-8.208,62.18,5.309,77.989,31.161
	c0.142-6.554-0.599-13.265-2.387-19.921c-10.019-37.423-48.467-59.605-85.89-49.577c-37.423,10.004-59.62,48.475-49.609,85.882
	c1.804,6.656,4.474,12.839,7.932,18.432C374.885,235.639,395.357,208.196,426.116,199.949z"></path>
    <linearGradient id="SVGID_24_" gradientUnits="userSpaceOnUse" x1="-35.6861" y1="583.7413" x2="-37.6361" y2="598.4634" gradientTransform="matrix(7.8769 0 0 -7.8769 364.0649 4969.6768)">
      <stop offset="0.012"></stop>
      <stop offset="0.519"></stop>
      <stop offset="1"></stop>
    </linearGradient>
    <path d="M78.004,304.16c-30.752,8.247-62.188-5.293-77.982-31.145
	c-0.165,6.561,0.599,13.265,2.387,19.921c9.996,37.408,48.451,59.613,85.89,49.593c37.408-10.027,59.589-48.475,49.593-85.898
	c-1.788-6.664-4.513-12.824-7.932-18.44C129.204,268.486,108.755,295.921,78.004,304.16z"></path>
    <linearGradient id="SVGID_25_" gradientUnits="userSpaceOnUse" x1="-13.5566" y1="603.3655" x2="-15.1076" y2="591.5295" gradientTransform="matrix(7.8769 0 0 -7.8769 364.0649 4969.6768)">
      <stop offset="0"></stop>
      <stop offset="0.519"></stop>
      <stop offset="0.999"></stop>
      <stop offset="1"></stop>
    </linearGradient>
    <path d="M313.453,256.615c0-3.442-0.354-6.782-0.898-10.067
	c-4.813,29.097-30.027,51.318-60.495,51.318s-55.674-22.213-60.495-51.318c-0.551,3.285-0.898,6.632-0.898,10.067
	c0,33.91,27.49,61.393,61.393,61.393C285.954,318.008,313.453,290.525,313.453,256.615z"></path>
    <linearGradient id="SVGID_26_" gradientUnits="userSpaceOnUse" x1="-12.6963" y1="602.0021" x2="-45.8563" y2="573.3761" gradientTransform="matrix(7.8769 0 0 -7.8769 364.0649 4969.6768)">
      <stop offset="0"></stop>
      <stop offset="0.519"></stop>
      <stop offset="0.999"></stop>
      <stop offset="1"></stop>
    </linearGradient>
    <path d="M190.675,247.51c0,3.434,0.347,6.782,0.898,10.067c4.813-29.105,30.027-51.318,60.495-51.318
	s55.674,22.205,60.495,51.318c0.544-3.285,0.898-6.64,0.898-10.067c0-33.902-27.498-61.393-61.393-61.393
	C218.166,186.117,190.675,213.607,190.675,247.51z"></path>
    <g></g>
    <g></g>
    <g></g>
    <g></g>
    <g></g>
    <g></g>
    <g></g>
    <g></g>
    <g></g>
    <g></g>
    <g></g>
    <g></g>
    <g></g>
    <g></g>
    <g></g>
  </symbol>
  <symbol version="1.1" id="popular" xmlns="http://www.w3.org/2000/svg" xmlns:xlink="http://www.w3.org/1999/xlink" x="0px" y="0px" xml:space="preserve" viewBox="0 0 328.672 328.672">
    <g>
      <g id="Artwork_42_">
        <g id="Layer_5_42_">
          <g>
            <path d="M164.338,40.044c-46.887,0-85.031,38.143-85.031,85.027c0,46.886,38.145,85.029,85.031,85.029
					c46.885,0,85.027-38.143,85.027-85.029C249.365,78.187,211.223,40.044,164.338,40.044z M208.585,134.912
					c-7.087,10.775-37.593,36.398-44.202,36.398c-6.475,0-37.255-25.718-44.296-36.398c-3.523-5.348-6.024-11.25-5.608-19.008
					c0.734-13.73,11.962-25.071,25.712-25.071c14.136,0,22.368,15.083,24.148,15.083c2.028,0,10.613-15.083,24.142-15.083
					c13.75,0,24.979,11.341,25.713,25.071C214.609,123.662,212.115,129.541,208.585,134.912z"></path>
            <path d="M275.758,154.147c2.824-9.904,18.791-18.31,18.791-29.072c0-10.764-15.967-19.169-18.791-29.073
					c-2.904-10.19,6.157-25.721,0.673-34.608c-5.506-8.925-23.521-7.846-31.206-15.055c-7.598-7.127-7.598-25.17-16.914-30.229
					c-9.1-4.938-24.229,4.833-34.582,2.237C183.77,15.85,175.113,0,164.338,0c-10.775,0-19.434,15.85-29.392,18.346
					c-10.354,2.596-25.483-7.176-34.582-2.236c-9.317,5.057-9.318,23.1-16.916,30.227c-7.685,7.209-25.701,6.131-31.207,15.056
					c-5.484,8.889,3.578,24.419,0.673,34.61c-2.824,9.904-18.791,18.309-18.791,29.072c0,10.763,15.967,19.167,18.791,29.072
					c2.906,10.19-6.155,25.72-0.671,34.608c5.506,8.924,23.522,7.845,31.206,15.054c7.598,7.127,7.6,25.17,16.917,30.228
					c4.681,2.54,10.958,1.188,17.359-0.371c0.855-0.208,2.567-0.55,2.567,2.747c0,0.025-0.004,85.501-0.004,85.501
					c0,5.831,4.224,8.385,9.387,5.676l25.273-13.266c5.163-2.709,13.611-2.709,18.773,0l25.273,13.266
					c5.162,2.709,9.387,0.155,9.387-5.676c0,0-0.004-85.974-0.004-86.001c0-3.416,1.036-2.623,1.554-2.496
					c6.75,1.652,13.446,3.293,18.375,0.618c9.317-5.058,9.319-23.101,16.917-30.226c7.685-7.209,25.699-6.131,31.206-15.055
					C281.914,179.867,272.853,164.337,275.758,154.147z M164.338,219.788c-52.228,0-94.719-42.49-94.719-94.717
					c0-52.226,42.491-94.715,94.719-94.715c52.225,0,94.715,42.489,94.715,94.715C259.053,177.298,216.563,219.788,164.338,219.788z
					"></path>
          </g>
        </g>
      </g>
    </g>
    <g></g>
    <g></g>
    <g></g>
    <g></g>
    <g></g>
    <g></g>
    <g></g>
    <g></g>
    <g></g>
    <g></g>
    <g></g>
    <g></g>
    <g></g>
    <g></g>
    <g></g>
  </symbol>
  <symbol xmlns="http://www.w3.org/2000/svg" viewBox="0 0 1024 1024" id="line">
    <path d="M904 476H120c-4.4 0-8 3.6-8 8v56c0 4.4 3.6 8 8 8h784c4.4 0 8-3.6 8-8v-56c0-4.4-3.6-8-8-8z"></path>
  </symbol>
  <symbol xmlns="http://www.w3.org/2000/svg" viewBox="0 0 20 20" id="shevron">
    <path d="M10 .4C4.697.4.399 4.698.399 10A9.6 9.6 0 0 0 10 19.601c5.301 0 9.6-4.298 9.6-9.601 0-5.302-4.299-9.6-9.6-9.6zm-.001 17.2a7.6 7.6 0 1 1 0-15.2 7.6 7.6 0 1 1 0 15.2zM12 6H8v4H5.5l4.5 4.5 4.5-4.5H12V6z"></path>
  </symbol>
  <symbol xmlns="http://www.w3.org/2000/svg" viewBox="0 0 40 40" id="tick">
    <path fill="#8bb7f0" d="M4.769,37.5c-1.251,0-2.269-1.018-2.269-2.269V4.769C2.5,3.518,3.518,2.5,4.769,2.5h30.462 c1.251,0,2.269,1.018,2.269,2.269v30.462c0,1.251-1.018,2.269-2.269,2.269H4.769z"></path>
    <path fill="#4e7ab5" d="M35.231,3C36.206,3,37,3.794,37,4.769v30.462C37,36.206,36.206,37,35.231,37H4.769 C3.794,37,3,36.206,3,35.231V4.769C3,3.794,3.794,3,4.769,3H35.231 M35.231,2H4.769C3.24,2,2,3.24,2,4.769v30.462 C2,36.76,3.24,38,4.769,38h30.462C36.76,38,38,36.76,38,35.231V4.769C38,3.24,36.76,2,35.231,2L35.231,2z"></path>
    <path fill="none" stroke="#fff" stroke-miterlimit="10" stroke-width="3" d="M11 20.053L16.964 26.018 30.385 12.598"></path>
  </symbol>
  <symbol version="1.1" id="wordpress" xmlns="http://www.w3.org/2000/svg" xmlns:xlink="http://www.w3.org/1999/xlink" x="0px" y="0px" xml:space="preserve" viewBox="0 0 512 512">
    <g>
      <g>
        <g>
          <path d="M41.073,152.466c-1.425-3.903-5.074-6.551-9.226-6.696c-4.175-0.132-7.977,2.245-9.669,6.039
				C7.468,184.791,0.009,219.844,0.009,255.99c0,48.964,13.875,96.559,40.124,137.639c25.548,39.983,61.564,72.053,104.158,92.743
				c1.418,0.69,2.941,1.025,4.454,1.025c2.474,0,4.921-0.9,6.836-2.629c3.085-2.785,4.172-7.164,2.747-11.068L41.073,152.466z
				 M20.408,255.99c0-24.264,3.652-47.994,10.883-70.837l98.5,269.854C61.706,412.039,20.408,337.973,20.408,255.99z"></path>
          <path d="M345.376,480.765l-75.473-206.771c-1.471-4.028-5.3-6.702-9.58-6.702c-0.032,0-0.064,0-0.096,0
				c-4.318,0.041-8.143,2.796-9.55,6.88l-73.753,214.293c-0.907,2.633-0.697,5.523,0.581,7.998c1.278,2.475,3.513,4.319,6.185,5.106
				C207.225,508.492,231.555,512,256.001,512c29.053,0,57.656-4.883,85.015-14.514c2.907-1.024,5.195-3.307,6.226-6.212
				c1.031-2.905,0.692-6.121-0.922-8.747C345.897,481.836,345.594,481.272,345.376,480.765z M256.001,491.602
				c-18.944,0-37.814-2.291-56.238-6.818l60.841-176.773l63.36,173.59C301.937,488.241,279.126,491.602,256.001,491.602z"></path>
          <path d="M373.292,403.888c4.314,0,8.167-2.717,9.612-6.788l27.138-76.438c13.018-33.396,19.346-60.555,19.346-83.022
				c0-33.87-10.023-51.413-18.869-66.891c-0.054-0.094-0.109-0.189-0.167-0.283c-0.982-1.597-1.959-3.175-2.926-4.737
				c-10.569-17.065-19.698-31.803-19.698-47.571c0-16.074,11.879-33.424,31.069-33.424c0.317,0,0.804,0.041,1.321,0.085
				c0.404,0.034,0.805,0.067,1.209,0.093c4.329,0.281,8.341-2.2,10.038-6.179c1.696-3.979,0.699-8.597-2.492-11.52
				C381.573,23.87,320.18,0,256.001,0C169.666,0,89.708,43.127,42.115,115.365c-2.031,3.083-2.238,7.022-0.541,10.3
				c1.696,3.277,5.032,5.383,8.72,5.505c6.281,0.208,11.719,0.314,16.16,0.314c23.686,0,58.376-2.55,65.182-3.068
				c1.089,1.962,1.193,6.64,0.137,8.39c-2.685,0.3-14.319,1.553-26.893,2.209c-3.185,0.166-6.108,1.811-7.902,4.449
				c-1.794,2.636-2.251,5.961-1.235,8.984l80.48,239.565c1.395,4.153,5.286,6.951,9.668,6.951c0.004,0,0.008,0,0.011,0
				c4.386-0.005,8.278-2.813,9.665-6.973l53.793-161.323c0.738-2.214,0.696-4.613-0.122-6.8l-29.269-78.243
				c-1.416-3.782-4.928-6.373-8.959-6.608c-11.584-0.675-22.772-1.988-24.791-2.231c-0.919-1.946-0.707-6.437,0.377-8.368
				c7.002,0.524,42.099,3.064,64.336,3.064c23.69,0,58.382-2.55,65.184-3.068c1.09,1.961,1.196,6.641,0.139,8.389
				c-2.677,0.3-14.328,1.554-26.896,2.211c-3.193,0.166-6.123,1.821-7.916,4.469c-1.792,2.648-2.239,5.983-1.207,9.009
				l83.404,244.49c1.401,4.108,5.25,6.879,9.59,6.906C373.25,403.888,373.27,403.888,373.292,403.888z M303.83,158.48
				c8.698-0.708,14.988-1.437,15.375-1.483c11.726-1.386,19.321-12.743,18.061-27.005c-1.206-13.633-10.034-22.696-21.423-22.014
				c-0.065,0.004-0.133,0.008-0.198,0.013c-0.395,0.031-39.714,3.092-64.716,3.092c-23.477,0-63.551-3.063-63.953-3.093
				c-0.061-0.005-0.122-0.009-0.184-0.012c-11.588-0.695-20.652,9.083-21.489,23.228c-0.836,14.126,6.861,24.914,18.351,25.817
				c1.624,0.197,9.756,1.164,19.509,1.907l25.701,68.706l-43.012,128.993l-66.564-198.143c8.736-0.709,15.053-1.442,15.444-1.488
				c11.724-1.386,19.316-12.747,18.055-27.012c-1.207-13.629-10.032-22.697-21.419-22.007c-0.065,0.004-0.133,0.008-0.198,0.013
				c-0.374,0.031-35.884,2.795-60.879,3.071c44.547-57.103,112.646-90.666,185.71-90.666c51.924,0,101.868,16.978,142.757,48.187
				c-18.452,8.187-31.428,27.326-31.428,49.574c0,21.573,11.053,39.419,22.755,58.312c0.927,1.497,1.864,3.01,2.806,4.541
				c8.29,14.509,16.097,28.269,16.097,56.629c0,19.642-6.058,45.128-18.008,75.755c-0.038,0.098-0.074,0.196-0.109,0.295
				l-17.388,48.972L303.83,158.48z"></path>
          <path d="M480.631,133.175c-2.361-4.308-7.461-6.319-12.133-4.786c-4.669,1.538-7.577,6.188-6.917,11.059
				c1.038,7.665,1.566,15.707,1.566,23.901c0,26.824-5.711,53.594-17.971,84.247c-0.06,0.15-0.116,0.302-0.169,0.454l-75.07,217.056
				c-1.393,4.031-0.132,8.504,3.164,11.213c1.868,1.534,4.166,2.319,6.479,2.319c1.765,0,3.539-0.458,5.132-1.388
				c38.017-22.163,69.889-53.921,92.171-91.842c22.969-39.088,35.109-83.839,35.109-129.417
				C511.991,213.087,501.147,170.617,480.631,133.175z M399.158,443.029l65.051-188.086c9.331-23.375,15.137-44.781,17.736-65.726
				c6.365,21.591,9.65,44.116,9.65,66.774C491.595,329.489,456.798,398.762,399.158,443.029z"></path>
        </g>
      </g>
    </g>
    <g>
      <g>
        <path d="M262.286,369.734c-5.342-1.782-11.119,1.108-12.901,6.451l-1.36,4.079c-1.781,5.343,1.108,11.119,6.451,12.901
			c1.07,0.357,2.157,0.526,3.226,0.526c4.27,0,8.25-2.703,9.675-6.977l1.36-4.079C270.518,377.292,267.629,371.516,262.286,369.734z
			"></path>
      </g>
    </g>
    <g>
      <g>
        <path d="M249.707,407.472c-5.344-1.786-11.119,1.108-12.901,6.45l-16.999,50.996c-1.781,5.343,1.108,11.119,6.451,12.9
			c1.07,0.358,2.157,0.527,3.226,0.527c4.27,0,8.25-2.703,9.675-6.977l16.998-50.996
			C257.939,415.029,255.05,409.253,249.707,407.472z"></path>
      </g>
    </g>
    <g></g>
    <g></g>
    <g></g>
    <g></g>
    <g></g>
    <g></g>
    <g></g>
    <g></g>
    <g></g>
    <g></g>
    <g></g>
    <g></g>
    <g></g>
    <g></g>
    <g></g>
  </symbol>
</svg>