<svg width="0" height="0" class="hidden">
  <symbol version="1.1" id="relax" xmlns="http://www.w3.org/2000/svg" xmlns:xlink="http://www.w3.org/1999/xlink" x="0px" y="0px" xml:space="preserve" viewBox="0 0 388.359 388.359">
    <path d="M363.228,345.882c-0.59,5.491-5.514,9.466-11.012,8.873c-8.099-0.87-15.051-2.256-20.662-4.117
	c-16.85-5.584-54.331-5.521-77.119,0.128c-12.8,3.173-30.283,5.067-47.32,5.068c-15.538,0-30.704-1.575-41.623-5.195
	c-16.849-5.586-54.328-5.522-77.119,0.127c-5.813,1.44-12.483,2.607-19.827,3.469c-5.482,0.651-10.453-3.281-11.098-8.766
	c-0.644-5.485,3.28-10.454,8.766-11.098c6.513-0.765,12.35-1.78,17.349-3.019c23.626-5.854,65.67-7.173,88.223,0.302
	c17.155,5.688,54.254,5.544,77.839-0.301c23.623-5.857,65.668-7.174,88.225,0.301c4.206,1.395,9.913,2.507,16.507,3.216
	C359.847,335.46,363.819,340.391,363.228,345.882z M354.355,293.245c-6.594-0.709-12.301-1.821-16.507-3.216
	c-22.557-7.475-64.602-6.158-88.225-0.301c-23.585,5.844-60.684,5.988-77.839,0.301c-22.553-7.475-64.597-6.156-88.223-0.302
	c-4.999,1.238-10.836,2.254-17.349,3.019c-5.485,0.644-9.409,5.612-8.766,11.098c0.645,5.485,5.615,9.422,11.098,8.766
	c7.344-0.861,14.014-2.028,19.827-3.469c22.791-5.649,60.271-5.713,77.119-0.127c10.919,3.62,26.085,5.195,41.623,5.195
	c17.037-0.001,34.521-1.896,47.32-5.068c22.788-5.649,60.27-5.712,77.119-0.128c5.611,1.861,12.563,3.247,20.662,4.117
	c5.498,0.594,10.422-3.381,11.012-8.873C363.819,298.765,359.847,293.834,354.355,293.245z M280.923,73.707
	c0-22.708,18.474-41.183,41.182-41.183s41.182,18.475,41.182,41.183c0,22.707-18.474,41.18-41.182,41.18
	S280.923,96.414,280.923,73.707z M300.923,73.707c0,11.679,9.502,21.18,21.182,21.18s21.182-9.501,21.182-21.18
	c0-11.68-9.502-21.183-21.182-21.183S300.923,62.028,300.923,73.707z M388.359,190.195v5.774v29.946
	c0,22.027-17.92,39.947-39.946,39.947H72.254c-22.026,0-39.946-17.92-39.946-39.947c0-22.026,17.92-39.946,39.946-39.946h201.653
	c2.172-29.635,26.96-53.087,57.14-53.087C362.649,132.882,388.359,158.592,388.359,190.195z M293.972,185.969h74.15
	c-2.106-18.592-17.93-33.087-37.075-33.087S296.078,167.377,293.972,185.969z M368.359,205.969h-84.625H72.254
	c-10.998,0-19.946,8.948-19.946,19.946c0,10.999,8.948,19.947,19.946,19.947h276.159c10.998,0,19.946-8.948,19.946-19.947V205.969z
	 M43.769,175.585l-26.6,27.355c-1.96,2.016-4.563,3.028-7.17,3.028c-2.513,0-5.027-0.94-6.971-2.831
	c-3.959-3.85-4.048-10.181-0.197-14.141l29.545-30.384c0.016-0.017,0.034-0.03,0.05-0.047c0.033-0.033,0.065-0.066,0.098-0.098
	c0.016-0.015,0.028-0.032,0.044-0.047l52.484-51.107c14.985-14.592,38.458-14.59,53.439,0l49.572,48.271h21.441
	c21.506,0,42.104-9.171,56.512-25.161c0.198-0.227,1.635-1.938,8.91-11.693c3.303-4.426,9.568-5.339,13.995-2.038
	c4.427,3.302,5.34,9.567,2.038,13.995c-8.361,11.211-9.569,12.552-10.085,13.124c-18.194,20.192-44.208,31.773-71.37,31.773H43.769z
	 M64.148,155.585h95.249l-34.858-33.943c-7.159-6.972-18.374-6.972-25.533,0L64.148,155.585z"></path>
    <g></g>
    <g></g>
    <g></g>
    <g></g>
    <g></g>
    <g></g>
    <g></g>
    <g></g>
    <g></g>
    <g></g>
    <g></g>
    <g></g>
    <g></g>
    <g></g>
    <g></g>
  </symbol>
  <symbol version="1.1" id="wordpress" xmlns="http://www.w3.org/2000/svg" xmlns:xlink="http://www.w3.org/1999/xlink" x="0px" y="0px" xml:space="preserve" viewBox="0 0 512 512">
    <g>
      <g>
        <g>
          <path d="M41.073,152.466c-1.425-3.903-5.074-6.551-9.226-6.696c-4.175-0.132-7.977,2.245-9.669,6.039
				C7.468,184.791,0.009,219.844,0.009,255.99c0,48.964,13.875,96.559,40.124,137.639c25.548,39.983,61.564,72.053,104.158,92.743
				c1.418,0.69,2.941,1.025,4.454,1.025c2.474,0,4.921-0.9,6.836-2.629c3.085-2.785,4.172-7.164,2.747-11.068L41.073,152.466z
				 M20.408,255.99c0-24.264,3.652-47.994,10.883-70.837l98.5,269.854C61.706,412.039,20.408,337.973,20.408,255.99z"></path>
          <path d="M345.376,480.765l-75.473-206.771c-1.471-4.028-5.3-6.702-9.58-6.702c-0.032,0-0.064,0-0.096,0
				c-4.318,0.041-8.143,2.796-9.55,6.88l-73.753,214.293c-0.907,2.633-0.697,5.523,0.581,7.998c1.278,2.475,3.513,4.319,6.185,5.106
				C207.225,508.492,231.555,512,256.001,512c29.053,0,57.656-4.883,85.015-14.514c2.907-1.024,5.195-3.307,6.226-6.212
				c1.031-2.905,0.692-6.121-0.922-8.747C345.897,481.836,345.594,481.272,345.376,480.765z M256.001,491.602
				c-18.944,0-37.814-2.291-56.238-6.818l60.841-176.773l63.36,173.59C301.937,488.241,279.126,491.602,256.001,491.602z"></path>
          <path d="M373.292,403.888c4.314,0,8.167-2.717,9.612-6.788l27.138-76.438c13.018-33.396,19.346-60.555,19.346-83.022
				c0-33.87-10.023-51.413-18.869-66.891c-0.054-0.094-0.109-0.189-0.167-0.283c-0.982-1.597-1.959-3.175-2.926-4.737
				c-10.569-17.065-19.698-31.803-19.698-47.571c0-16.074,11.879-33.424,31.069-33.424c0.317,0,0.804,0.041,1.321,0.085
				c0.404,0.034,0.805,0.067,1.209,0.093c4.329,0.281,8.341-2.2,10.038-6.179c1.696-3.979,0.699-8.597-2.492-11.52
				C381.573,23.87,320.18,0,256.001,0C169.666,0,89.708,43.127,42.115,115.365c-2.031,3.083-2.238,7.022-0.541,10.3
				c1.696,3.277,5.032,5.383,8.72,5.505c6.281,0.208,11.719,0.314,16.16,0.314c23.686,0,58.376-2.55,65.182-3.068
				c1.089,1.962,1.193,6.64,0.137,8.39c-2.685,0.3-14.319,1.553-26.893,2.209c-3.185,0.166-6.108,1.811-7.902,4.449
				c-1.794,2.636-2.251,5.961-1.235,8.984l80.48,239.565c1.395,4.153,5.286,6.951,9.668,6.951c0.004,0,0.008,0,0.011,0
				c4.386-0.005,8.278-2.813,9.665-6.973l53.793-161.323c0.738-2.214,0.696-4.613-0.122-6.8l-29.269-78.243
				c-1.416-3.782-4.928-6.373-8.959-6.608c-11.584-0.675-22.772-1.988-24.791-2.231c-0.919-1.946-0.707-6.437,0.377-8.368
				c7.002,0.524,42.099,3.064,64.336,3.064c23.69,0,58.382-2.55,65.184-3.068c1.09,1.961,1.196,6.641,0.139,8.389
				c-2.677,0.3-14.328,1.554-26.896,2.211c-3.193,0.166-6.123,1.821-7.916,4.469c-1.792,2.648-2.239,5.983-1.207,9.009
				l83.404,244.49c1.401,4.108,5.25,6.879,9.59,6.906C373.25,403.888,373.27,403.888,373.292,403.888z M303.83,158.48
				c8.698-0.708,14.988-1.437,15.375-1.483c11.726-1.386,19.321-12.743,18.061-27.005c-1.206-13.633-10.034-22.696-21.423-22.014
				c-0.065,0.004-0.133,0.008-0.198,0.013c-0.395,0.031-39.714,3.092-64.716,3.092c-23.477,0-63.551-3.063-63.953-3.093
				c-0.061-0.005-0.122-0.009-0.184-0.012c-11.588-0.695-20.652,9.083-21.489,23.228c-0.836,14.126,6.861,24.914,18.351,25.817
				c1.624,0.197,9.756,1.164,19.509,1.907l25.701,68.706l-43.012,128.993l-66.564-198.143c8.736-0.709,15.053-1.442,15.444-1.488
				c11.724-1.386,19.316-12.747,18.055-27.012c-1.207-13.629-10.032-22.697-21.419-22.007c-0.065,0.004-0.133,0.008-0.198,0.013
				c-0.374,0.031-35.884,2.795-60.879,3.071c44.547-57.103,112.646-90.666,185.71-90.666c51.924,0,101.868,16.978,142.757,48.187
				c-18.452,8.187-31.428,27.326-31.428,49.574c0,21.573,11.053,39.419,22.755,58.312c0.927,1.497,1.864,3.01,2.806,4.541
				c8.29,14.509,16.097,28.269,16.097,56.629c0,19.642-6.058,45.128-18.008,75.755c-0.038,0.098-0.074,0.196-0.109,0.295
				l-17.388,48.972L303.83,158.48z"></path>
          <path d="M480.631,133.175c-2.361-4.308-7.461-6.319-12.133-4.786c-4.669,1.538-7.577,6.188-6.917,11.059
				c1.038,7.665,1.566,15.707,1.566,23.901c0,26.824-5.711,53.594-17.971,84.247c-0.06,0.15-0.116,0.302-0.169,0.454l-75.07,217.056
				c-1.393,4.031-0.132,8.504,3.164,11.213c1.868,1.534,4.166,2.319,6.479,2.319c1.765,0,3.539-0.458,5.132-1.388
				c38.017-22.163,69.889-53.921,92.171-91.842c22.969-39.088,35.109-83.839,35.109-129.417
				C511.991,213.087,501.147,170.617,480.631,133.175z M399.158,443.029l65.051-188.086c9.331-23.375,15.137-44.781,17.736-65.726
				c6.365,21.591,9.65,44.116,9.65,66.774C491.595,329.489,456.798,398.762,399.158,443.029z"></path>
        </g>
      </g>
    </g>
    <g>
      <g>
        <path d="M262.286,369.734c-5.342-1.782-11.119,1.108-12.901,6.451l-1.36,4.079c-1.781,5.343,1.108,11.119,6.451,12.901
			c1.07,0.357,2.157,0.526,3.226,0.526c4.27,0,8.25-2.703,9.675-6.977l1.36-4.079C270.518,377.292,267.629,371.516,262.286,369.734z
			"></path>
      </g>
    </g>
    <g>
      <g>
        <path d="M249.707,407.472c-5.344-1.786-11.119,1.108-12.901,6.45l-16.999,50.996c-1.781,5.343,1.108,11.119,6.451,12.9
			c1.07,0.358,2.157,0.527,3.226,0.527c4.27,0,8.25-2.703,9.675-6.977l16.998-50.996
			C257.939,415.029,255.05,409.253,249.707,407.472z"></path>
      </g>
    </g>
    <g></g>
    <g></g>
    <g></g>
    <g></g>
    <g></g>
    <g></g>
    <g></g>
    <g></g>
    <g></g>
    <g></g>
    <g></g>
    <g></g>
    <g></g>
    <g></g>
    <g></g>
  </symbol>
  <symbol version="1.1" id="click" xmlns="http://www.w3.org/2000/svg" xmlns:xlink="http://www.w3.org/1999/xlink" x="0px" y="0px" xml:space="preserve" viewBox="0 0 329.788 329.788">
    <g id="XMLID_938_">
      <g>
        <path d="M300.52,178.059c-0.886-10.624-5.832-20.248-13.927-27.098c-9.315-7.883-21.444-10.85-32.905-8.756V36.155
			c0-18.744-13.796-34.217-32.09-35.99c-9.959-0.965-19.937,2.342-27.354,9.074c-7.434,6.747-11.696,16.344-11.696,26.327V65.83
			c-4.706-2.301-9.989-3.597-15.57-3.597c-13.165,0-24.674,7.195-30.824,17.854c-5.765-4.027-12.767-6.398-20.317-6.398
			c-18.939,0-34.464,14.879-35.51,33.562c-3.715-1.829-7.803-3.032-12.151-3.453c-9.966-0.965-19.937,2.341-27.354,9.074
			c-7.433,6.747-11.696,16.343-11.696,26.327l13.581,190.589h198.37l12.039-77.605l38.156-45.094
			C298.119,198.993,301.404,188.683,300.52,178.059z M276.002,194.17l-38.525,45.529c-0.254,0.3-0.557,0.629-0.951,1.033
			l-2.229,2.289l-10.358,66.766H61.327l-12.2-170.9c0.087-4.244,1.948-8.313,5.135-11.207c3.298-2.994,7.553-4.398,11.982-3.977
			c7.862,0.763,14.021,7.827,14.021,16.084v20h20v-20v-30.528c0-8.586,6.985-15.57,15.57-15.57c8.586,0,15.571,6.984,15.571,15.57
			v50.528h20v-50.528V97.804c0-8.586,6.985-15.571,15.571-15.571s15.57,6.985,15.57,15.571v61.982h20V97.804V35.566
			c0-4.355,1.873-8.554,5.139-11.519c3.298-2.994,7.556-4.401,11.982-3.977c7.861,0.763,14.02,7.827,14.02,16.084v140.08
			l15.748-11.063c7.397-5.194,17.362-4.758,24.238,1.058c4.017,3.399,6.473,8.19,6.914,13.491
			C281.03,185.02,279.401,190.152,276.002,194.17z"></path>
      </g>
    </g>
    <g></g>
    <g></g>
    <g></g>
    <g></g>
    <g></g>
    <g></g>
    <g></g>
    <g></g>
    <g></g>
    <g></g>
    <g></g>
    <g></g>
    <g></g>
    <g></g>
    <g></g>
  </symbol>
  <symbol version="1.1" id="clock" xmlns="http://www.w3.org/2000/svg" xmlns:xlink="http://www.w3.org/1999/xlink" x="0px" y="0px" xml:space="preserve" viewBox="0 0 297 297">
    <g>
      <g>
        <g>
          <path d="M148.5,0C66.617,0,0,66.617,0,148.5S66.617,297,148.5,297S297,230.383,297,148.5S230.383,0,148.5,0z M148.5,276.085
				c-70.351,0-127.585-57.234-127.585-127.585S78.149,20.915,148.5,20.915S276.085,78.149,276.085,148.5
				S218.851,276.085,148.5,276.085z"></path>
          <path d="M148.5,36.602c-61.701,0-111.898,50.197-111.898,111.898S86.799,260.398,148.5,260.398S260.398,210.201,260.398,148.5
				S210.201,36.602,148.5,36.602z M222.849,207.831l-3.338-3.338c-4.083-4.085-10.706-4.084-14.789,0.001
				c-4.084,4.084-4.083,10.706,0.001,14.789l3.362,3.361c-13.761,11.081-30.656,18.415-49.127,20.444v-5.174
				c0-5.775-4.682-10.458-10.458-10.458s-10.458,4.683-10.458,10.458v5.174c-18.552-2.037-35.514-9.427-49.307-20.589l3.772-3.773
				c4.084-4.084,4.083-10.706-0.001-14.789c-4.083-4.085-10.706-4.084-14.789,0.001l-3.711,3.712
				c-10.886-13.681-18.087-30.416-20.094-48.693h5.174c5.775,0,10.458-4.682,10.458-10.458s-4.682-10.458-10.458-10.458h-5.174
				c2.028-18.471,9.363-35.366,20.444-49.127l3.361,3.362c2.042,2.043,4.718,3.064,7.395,3.064c2.676,0,5.352-1.021,7.394-3.063
				c4.084-4.083,4.085-10.705,0.001-14.789l-3.338-3.338c13.715-10.967,30.516-18.224,48.873-20.239v4.39
				c0,5.775,4.682,10.458,10.458,10.458s10.458-4.682,10.458-10.458v-4.39c18.277,2.007,35.011,9.208,48.693,20.094l-2.928,2.928
				c-4.084,4.084-4.083,10.706,0.001,14.789c2.042,2.043,4.717,3.063,7.394,3.063s5.353-1.021,7.395-3.064l2.986-2.987
				c11.162,13.794,18.552,30.755,20.589,49.307h-4.39c-5.775,0-10.458,4.682-10.458,10.458s4.683,10.459,10.458,10.459h4.39
				C241.072,177.315,233.815,194.116,222.849,207.831z"></path>
          <path d="M191.377,138.042h-32.419V86.799c0-5.775-4.682-10.458-10.458-10.458s-10.458,4.682-10.458,10.458V148.5
				c0,5.775,4.682,10.458,10.458,10.458h42.877c5.775,0,10.458-4.682,10.458-10.458S197.152,138.042,191.377,138.042z"></path>
        </g>
      </g>
    </g>
    <g></g>
    <g></g>
    <g></g>
    <g></g>
    <g></g>
    <g></g>
    <g></g>
    <g></g>
    <g></g>
    <g></g>
    <g></g>
    <g></g>
    <g></g>
    <g></g>
    <g></g>
  </symbol>
  <symbol version="1.1" id="quote" xmlns="http://www.w3.org/2000/svg" xmlns:xlink="http://www.w3.org/1999/xlink" x="0px" y="0px" xml:space="preserve" viewBox="0 0 91.674 91.674">
    <g>
      <g>
        <path d="M38.157,0.003c-8.398,0.373-15.895,3.722-21.68,9.685C1.141,25.498,1.436,55.3,1.52,58.596l0.001,31.078
			c0,1.104,0.896,2,2,2h30.691c1.104,0,2-0.896,2-2V58.981c0-1.104-0.896-2-2-2H18.527c0.003-2.562,0.313-25.309,10.186-35.455
			c2.672-2.747,5.836-4.214,9.674-4.485c1.048-0.074,1.859-0.945,1.859-1.995V2.002c0-0.546-0.223-1.068-0.617-1.445
			C39.234,0.179,38.71-0.031,38.157,0.003z"></path>
        <path d="M89.553,0.556c-0.395-0.377-0.906-0.587-1.472-0.553C79.684,0.375,72.186,3.725,66.4,9.688
			C51.065,25.498,51.359,55.3,51.443,58.596l0.001,31.078c0,1.104,0.896,2,2,2h30.69c1.104,0,2-0.896,2-2V58.981
			c0-1.104-0.896-2-2-2H68.452c0.003-2.562,0.313-25.309,10.185-35.455c2.673-2.747,5.837-4.214,9.675-4.485
			c1.048-0.074,1.858-0.945,1.858-1.995V2.002C90.17,1.457,89.947,0.935,89.553,0.556z"></path>
      </g>
    </g>
    <g></g>
    <g></g>
    <g></g>
    <g></g>
    <g></g>
    <g></g>
    <g></g>
    <g></g>
    <g></g>
    <g></g>
    <g></g>
    <g></g>
    <g></g>
    <g></g>
    <g></g>
  </symbol>
  <symbol version="1.1" id="computer" xmlns="http://www.w3.org/2000/svg" xmlns:xlink="http://www.w3.org/1999/xlink" x="0px" y="0px" xml:space="preserve" viewBox="0 0 389.981 389.981">
    <g>
      <path d="M145.407,248.988l-2.775,26.209c-0.224,2.115,0.46,4.225,1.883,5.806c1.422,1.581,3.449,2.483,5.576,2.483h79.301
		c2.126,0,4.153-0.903,5.576-2.483c1.422-1.581,2.106-3.691,1.883-5.806l-2.775-26.209h98.777c15.374,0,27.881-12.507,27.881-27.881
		V27.881C360.733,12.507,348.225,0,332.852,0H40.63C25.256,0,12.749,12.507,12.749,27.881v193.226
		c0,15.374,12.507,27.881,27.881,27.881H145.407z M221.055,268.487h-62.629l2.064-19.499h58.5L221.055,268.487z M40.63,15h292.222
		c7.103,0,12.881,5.778,12.881,12.881V197.99H27.749V27.881C27.749,20.778,33.527,15,40.63,15z M27.749,221.107v-8.117h317.983
		v8.117c0,7.103-5.778,12.881-12.881,12.881H40.63C33.527,233.988,27.749,228.21,27.749,221.107z"></path>
      <path d="M332.645,333.876c1.36-2.24,1.453-5.027,0.244-7.352l-14.813-28.499c-1.291-2.483-3.856-4.041-6.655-4.041H62.061
		c-2.798,0-5.364,1.558-6.655,4.041l-14.813,28.499c-1.208,2.325-1.116,5.112,0.244,7.352s3.791,3.607,6.411,3.607h278.986
		C328.854,337.484,331.285,336.116,332.645,333.876z M59.599,322.484l7.016-13.499h240.251l7.017,13.499H59.599z"></path>
      <path d="M345.733,350.982h-12c-17.368,0-31.499,14.13-31.499,31.499c0,4.142,3.358,7.5,7.5,7.5h59.997c4.142,0,7.5-3.358,7.5-7.5
		C377.232,365.113,363.102,350.982,345.733,350.982z M319.04,374.981c2.735-5.337,8.295-8.999,14.693-8.999h12
		c6.398,0,11.958,3.662,14.694,8.999H319.04z"></path>
    </g>
    <g></g>
    <g></g>
    <g></g>
    <g></g>
    <g></g>
    <g></g>
    <g></g>
    <g></g>
    <g></g>
    <g></g>
    <g></g>
    <g></g>
    <g></g>
    <g></g>
    <g></g>
  </symbol>
  <symbol version="1.1" xmlns="http://www.w3.org/2000/svg" xmlns:xlink="http://www.w3.org/1999/xlink" enable-background="new 0 0 512 512" viewBox="0 0 512 512" id="growth">
    <g>
      <g>
        <path d="m266.1,237.1h-82.2c-6.2,0-10.4,5.2-10.4,10.4v243c0,6.3 5.2,10.4 10.4,10.4h82.2c5.2,0 10.4-4.2 10.4-10.4v-243c0-6.2-5.2-10.4-10.4-10.4zm-10.4,243h-61.4v-222.1h61.4v222.1z"></path>
        <path d="M103.7,272.6H21.5c-6.2,0-10.4,5.2-10.4,10.4v207.6c0,6.3,5.2,10.4,10.4,10.4h82.2c5.2,0,10.4-4.2,10.4-10.4V283    C114.1,276.7,108.9,272.6,103.7,272.6z M93.3,480.1H31.9V293.4h61.4V480.1z"></path>
        <path d="m499.2,157.8l-103-142.9c-4.2-5.2-12.5-5.2-16.6,0l-103,142.9c-4.2,5.9-2.6,15.6 8.3,15.6h51v317.1c0,6.3 5.2,10.4 10.4,10.4h82.2c5.2,0 10.4-4.2 11.4-10.4v-317h51c10.2,0 12.4-10.4 8.3-15.7zm-70.8-5.2c-6.2,0-10.4,5.2-10.4,10.4v317.1h-61.4-1v-317.1c0-6.3-5.2-10.4-10.4-10.4h-41.6l83.2-114.7 83.2,114.7h-41.6z"></path>
      </g>
    </g>
  </symbol>
  <symbol xmlns="http://www.w3.org/2000/svg" viewBox="0 0 1024 1024" id="line">
    <path d="M904 476H120c-4.4 0-8 3.6-8 8v56c0 4.4 3.6 8 8 8h784c4.4 0 8-3.6 8-8v-56c0-4.4-3.6-8-8-8z"></path>
  </symbol>
  <symbol version="1.1" id="logo" xmlns="http://www.w3.org/2000/svg" xmlns:xlink="http://www.w3.org/1999/xlink" x="0px" y="0px" xml:space="preserve" viewBox="0 0 16.683 16.683">
    <g>
      <path d="M14.973,8.04c-0.408-0.156-0.963-0.254-1.554-0.281c1.058-0.447,1.649-1.448,1.32-2.235
		c-0.331-0.79-1.465-1.07-2.528-0.626c-0.272,0.113-0.59,0.297-0.906,0.52c0.524-0.56,0.951-1.191,1.149-1.71
		c0.528-1.373-0.16-2.919-1.533-3.447C9.548-0.266,8,0.423,7.474,1.796c-0.106,0.271-0.183,0.611-0.231,0.98
		C6.753,1.875,5.85,1.397,5.124,1.7c-0.79,0.33-1.07,1.466-0.625,2.528c0.03,0.071,0.066,0.148,0.104,0.224
		c-0.34-0.241-0.679-0.435-0.978-0.551c-1.374-0.528-2.92,0.161-3.447,1.534C-0.35,6.81,0.339,8.355,1.712,8.883
		C2.016,8.999,2.403,9.081,2.825,9.13c-1.04,0.453-1.618,1.441-1.292,2.222c0.33,0.79,1.465,1.071,2.528,0.626
		c0.018-0.008,0.036-0.017,0.055-0.025c-0.258,0.355-0.462,0.709-0.583,1.02c-0.527,1.375,0.161,2.921,1.534,3.449
		c1.373,0.526,2.919-0.162,3.447-1.534c0.173-0.448,0.273-1.072,0.287-1.729c0.033,0.101,0.067,0.196,0.103,0.281
		c0.444,1.064,1.449,1.66,2.239,1.329c0.79-0.33,1.07-1.464,0.626-2.527c-0.002-0.004-0.003-0.008-0.006-0.012
		c0.443,0.358,0.902,0.642,1.296,0.793c1.373,0.526,2.921-0.161,3.449-1.534C17.032,10.115,16.345,8.569,14.973,8.04z M12.365,5.264
		c0.79-0.33,1.634-0.121,1.88,0.465c0.246,0.588-0.198,1.335-0.989,1.667c-0.579,0.242-1.806,0.453-2.517,0.316
		c-0.031-0.105-0.065-0.209-0.112-0.312c-0.081-0.181-0.183-0.347-0.299-0.499C10.696,6.289,11.763,5.516,12.365,5.264z
		 M8.111,2.041c0.393-1.021,1.543-1.534,2.565-1.142c1.021,0.393,1.533,1.542,1.142,2.564c-0.326,0.847-1.565,2.364-2.562,2.634
		C8.997,5.996,8.72,5.943,8.438,5.933C7.675,5.244,7.754,2.971,8.111,2.041z M5.33,2.195C5.919,1.95,6.666,2.393,6.997,3.184
		C7.064,3.345,7.128,3.555,7.184,3.79c0.008,0.472,0.064,0.947,0.174,1.379c0,0.515-0.092,0.942-0.344,1.047
		c-0.588,0.246-1.817-1.35-2.148-2.141C4.534,3.284,4.743,2.441,5.33,2.195z M1.957,8.244C0.935,7.853,0.423,6.702,0.816,5.68
		c0.392-1.021,1.542-1.534,2.563-1.141c0.992,0.38,2.894,2.008,2.653,3.039C6.016,7.624,6,7.67,5.986,7.717
		C5.534,8.692,2.964,8.631,1.957,8.244z M7.877,14.642c-0.392,1.021-1.543,1.533-2.565,1.141c-1.021-0.392-1.534-1.543-1.142-2.564
		c0.368-0.958,1.905-2.776,2.937-2.676c0.14,0.083,0.288,0.15,0.439,0.203C8.312,11.434,8.235,13.708,7.877,14.642z M6.644,9.174
		C6.223,8.226,6.649,7.111,7.598,6.691c0.949-0.423,2.063,0.004,2.485,0.954c0.407,0.917,0.015,1.985-0.871,2.436H9.21
		c-0.005,0.002-0.009,0.007-0.015,0.01c-0.023,0.011-0.043,0.027-0.067,0.038C8.181,10.551,7.066,10.122,6.644,9.174z
		 M10.936,14.277c-0.587,0.244-1.333-0.199-1.665-0.991c-0.237-0.567-0.445-1.754-0.326-2.47c0.145-0.034,0.287-0.081,0.427-0.142
		c0.168-0.075,0.321-0.166,0.463-0.271c0.601,0.403,1.325,1.412,1.567,1.992C11.733,13.186,11.524,14.029,10.936,14.277z
		 M15.868,11.243c-0.393,1.021-1.542,1.534-2.564,1.143c-0.986-0.38-2.877-1.995-2.655-3.026c0.026-0.063,0.05-0.126,0.07-0.19
		c0.5-0.936,3.015-0.872,4.009-0.491C15.748,9.07,16.261,10.223,15.868,11.243z"></path>
    </g>
    <g></g>
    <g></g>
    <g></g>
    <g></g>
    <g></g>
    <g></g>
    <g></g>
    <g></g>
    <g></g>
    <g></g>
    <g></g>
    <g></g>
    <g></g>
    <g></g>
    <g></g>
  </symbol>
  <symbol version="1.1" id="note" xmlns="http://www.w3.org/2000/svg" xmlns:xlink="http://www.w3.org/1999/xlink" x="0px" y="0px" xml:space="preserve" viewBox="0 0 512 512">
    <g>
      <g>
        <path d="M407.273,23.273h-11.636c-6.435,0-11.636,5.213-11.636,11.636c0,6.423,5.201,11.636,11.636,11.636h11.636
			c6.423,0,11.636,5.225,11.636,11.636V384c0,6.412-5.213,11.636-11.636,11.636H104.727c-6.423,0-11.636-5.225-11.636-11.636V58.182
			c0-6.412,5.213-11.636,11.636-11.636h46.545v14.871c-6.924,4.038-11.636,11.462-11.636,20.038
			c0,12.835,10.438,23.273,23.273,23.273s23.273-10.438,23.273-23.273c0-8.576-4.713-16-11.636-20.038v-49.78
			C174.545,5.213,169.344,0,162.909,0c-6.435,0-11.636,5.213-11.636,11.636v11.636h-46.545c-19.247,0-34.909,15.663-34.909,34.909
			V384v93.091c0,19.247,15.663,34.909,34.909,34.909h302.545c19.247,0,34.909-15.663,34.909-34.909V384V58.182
			C442.182,38.935,426.519,23.273,407.273,23.273z M418.909,477.091c0,6.412-5.213,11.636-11.636,11.636H104.727
			c-6.423,0-11.636-5.225-11.636-11.636v-13.777c3.654,1.303,7.54,2.141,11.636,2.141h302.545c4.096,0,7.983-0.838,11.636-2.141
			V477.091z M418.909,430.545c0,6.412-5.213,11.636-11.636,11.636H104.727c-6.423,0-11.636-5.225-11.636-11.636v-13.777
			c3.654,1.303,7.54,2.141,11.636,2.141h302.545c4.096,0,7.983-0.838,11.636-2.141V430.545z"></path>
      </g>
    </g>
    <g>
      <g>
        <path d="M360.727,61.417v-49.78C360.727,5.213,355.526,0,349.091,0c-6.435,0-11.636,5.213-11.636,11.636v11.636h-34.909
			c-6.435,0-11.636,5.213-11.636,11.636c0,6.423,5.201,11.636,11.636,11.636h34.909v14.871
			c-6.924,4.038-11.636,11.462-11.636,20.038c0,12.835,10.438,23.273,23.273,23.273c12.835,0,23.273-10.438,23.273-23.273
			C372.364,72.879,367.651,65.455,360.727,61.417z"></path>
      </g>
    </g>
    <g>
      <g>
        <path d="M267.636,61.417v-49.78C267.636,5.213,262.435,0,256,0c-6.435,0-11.636,5.213-11.636,11.636v11.636h-34.909
			c-6.435,0-11.636,5.213-11.636,11.636c0,6.423,5.201,11.636,11.636,11.636h34.909v14.871
			c-6.924,4.038-11.636,11.462-11.636,20.038c0,12.835,10.438,23.273,23.273,23.273s23.273-10.438,23.273-23.273
			C279.273,72.879,274.56,65.455,267.636,61.417z"></path>
      </g>
    </g>
    <g>
      <g>
        <path d="M256,162.909H139.636c-6.435,0-11.636,5.213-11.636,11.636s5.201,11.636,11.636,11.636H256
			c6.435,0,11.636-5.213,11.636-11.636S262.435,162.909,256,162.909z"></path>
      </g>
    </g>
    <g>
      <g>
        <path d="M337.455,209.455H232.727c-6.435,0-11.636,5.213-11.636,11.636c0,6.423,5.201,11.636,11.636,11.636h104.727
			c6.435,0,11.636-5.213,11.636-11.636C349.091,214.668,343.889,209.455,337.455,209.455z"></path>
      </g>
    </g>
    <g>
      <g>
        <path d="M302.545,302.545H139.636c-6.435,0-11.636,5.213-11.636,11.636s5.201,11.636,11.636,11.636h162.909
			c6.435,0,11.636-5.213,11.636-11.636S308.98,302.545,302.545,302.545z"></path>
      </g>
    </g>
    <g>
      <g>
        <path d="M372.364,162.909h-69.818c-6.435,0-11.636,5.213-11.636,11.636s5.201,11.636,11.636,11.636h69.818
			c6.435,0,11.636-5.213,11.636-11.636S378.799,162.909,372.364,162.909z"></path>
      </g>
    </g>
    <g>
      <g>
        <path d="M244.364,256H139.636c-6.435,0-11.636,5.213-11.636,11.636s5.201,11.636,11.636,11.636h104.727
			c6.435,0,11.636-5.213,11.636-11.636S250.799,256,244.364,256z"></path>
      </g>
    </g>
    <g>
      <g>
        <path d="M186.182,209.455h-46.545c-6.435,0-11.636,5.213-11.636,11.636c0,6.423,5.201,11.636,11.636,11.636h46.545
			c6.435,0,11.636-5.213,11.636-11.636C197.818,214.668,192.617,209.455,186.182,209.455z"></path>
      </g>
    </g>
    <g>
      <g>
        <path d="M372.364,256h-81.455c-6.435,0-11.636,5.213-11.636,11.636s5.201,11.636,11.636,11.636h81.455
			c6.435,0,11.636-5.213,11.636-11.636S378.799,256,372.364,256z"></path>
      </g>
    </g>
    <g></g>
    <g></g>
    <g></g>
    <g></g>
    <g></g>
    <g></g>
    <g></g>
    <g></g>
    <g></g>
    <g></g>
    <g></g>
    <g></g>
    <g></g>
    <g></g>
    <g></g>
  </symbol>
  <symbol version="1.1" id="picture" xmlns="http://www.w3.org/2000/svg" xmlns:xlink="http://www.w3.org/1999/xlink" x="0px" y="0px" xml:space="preserve" viewBox="0 0 58 58">
    <g>
      <path d="M57,6H1C0.448,6,0,6.447,0,7v44c0,0.553,0.448,1,1,1h56c0.552,0,1-0.447,1-1V7C58,6.447,57.552,6,57,6z M56,50H2V8h54V50z"></path>
      <path d="M16,28.138c3.071,0,5.569-2.498,5.569-5.568C21.569,19.498,19.071,17,16,17s-5.569,2.498-5.569,5.569
		C10.431,25.64,12.929,28.138,16,28.138z M16,19c1.968,0,3.569,1.602,3.569,3.569S17.968,26.138,16,26.138s-3.569-1.601-3.569-3.568
		S14.032,19,16,19z"></path>
      <path d="M7,46c0.234,0,0.47-0.082,0.66-0.249l16.313-14.362l10.302,10.301c0.391,0.391,1.023,0.391,1.414,0s0.391-1.023,0-1.414
		l-4.807-4.807l9.181-10.054l11.261,10.323c0.407,0.373,1.04,0.345,1.413-0.062c0.373-0.407,0.346-1.04-0.062-1.413l-12-11
		c-0.196-0.179-0.457-0.268-0.72-0.262c-0.265,0.012-0.515,0.129-0.694,0.325l-9.794,10.727l-4.743-4.743
		c-0.374-0.373-0.972-0.392-1.368-0.044L6.339,44.249c-0.415,0.365-0.455,0.997-0.09,1.412C6.447,45.886,6.723,46,7,46z"></path>
    </g>
    <g></g>
    <g></g>
    <g></g>
    <g></g>
    <g></g>
    <g></g>
    <g></g>
    <g></g>
    <g></g>
    <g></g>
    <g></g>
    <g></g>
    <g></g>
    <g></g>
    <g></g>
  </symbol>
</svg>